<?xml version="1.0" standalone="no"?>
<!DOCTYPE svg PUBLIC "-//W3C//DTD SVG 20010904//EN"
 "http://www.w3.org/TR/2001/REC-SVG-20010904/DTD/svg10.dtd">
<svg version="1.0" xmlns="http://www.w3.org/2000/svg"
 width="700.000000pt" height="700.000000pt" viewBox="0 0 700.000000 700.000000"
 preserveAspectRatio="xMidYMid meet">
<metadata>
Created by potrace 1.14, written by Peter Selinger 2001-2017
</metadata>
<g transform="translate(0.000000,700.000000) scale(0.100000,-0.100000)"
fill="#000000" stroke="none">
<path d="M3265 6669 c-327 -25 -678 -108 -980 -233 -256 -107 -564 -290 -790
-472 -452 -364 -815 -888 -1007 -1454 -327 -964 -162 -2054 438 -2876 536
-735 1329 -1196 2234 -1300 199 -22 616 -15 805 14 769 120 1448 493 1943
1067 406 472 654 1019 749 1650 28 186 25 699 -4 885 -33 209 -69 359 -133
550 -120 361 -292 679 -530 980 -129 164 -400 428 -572 556 -626 469 -1382
691 -2153 633z m1411 -914 c95 -56 124 -183 65 -278 -79 -123 -262 -119 -336
8 -55 92 -24 215 68 269 59 36 143 36 203 1z m-1277 -816 c149 -38 309 -138
413 -260 198 -232 300 -547 299 -929 0 -262 -42 -458 -141 -665 -152 -317
-414 -527 -745 -596 -77 -16 -293 -16 -370 0 -140 29 -289 89 -382 152 -23 16
-44 29 -48 29 -3 0 -5 -219 -3 -487 3 -424 6 -495 21 -538 24 -74 84 -125 146
-125 21 0 31 -5 31 -15 0 -13 -42 -15 -315 -15 -260 0 -315 2 -315 14 0 8 16
15 42 19 84 11 131 77 148 212 7 54 10 524 8 1435 -3 1282 -4 1358 -21 1409
-36 106 -98 172 -175 187 -70 14 -34 36 193 116 121 42 223 78 227 78 4 0 9
-102 10 -226 l3 -227 46 59 c60 76 181 194 244 240 202 145 447 192 684 133z
m1351 -1308 c0 -1429 1 -1409 -51 -1571 -47 -145 -151 -299 -260 -385 -104
-82 -267 -156 -391 -179 -62 -11 -47 17 20 38 185 58 322 190 389 374 61 166
58 104 58 1427 l0 1210 -24 59 c-31 78 -80 131 -144 154 -29 11 -52 25 -52 32
0 10 415 167 448 169 4 1 7 -597 7 -1328z"/>
<path d="M2905 4780 c-152 -40 -263 -108 -397 -243 l-89 -91 4 -685 c3 -761 1
-727 72 -876 70 -146 202 -265 350 -314 97 -33 263 -40 369 -16 231 51 433
241 543 510 94 231 132 529 103 790 -67 582 -373 947 -794 944 -55 0 -119 -7
-161 -19z"/>
</g>
</svg>
